<?xml version="1.0" standalone="no"?><!DOCTYPE svg PUBLIC "-//W3C//DTD SVG 1.1//EN" "http://www.w3.org/Graphics/SVG/1.1/DTD/svg11.dtd"><svg class="icon" width="200px" height="200.00px" viewBox="0 0 1024 1024" version="1.1" xmlns="http://www.w3.org/2000/svg"><path fill="#d81e06" d="M248.065 833C235.527 833 223 845.6 223 864.497 223 883.395 235.527 896 248.065 896h469.88C730.473 896 743 883.395 743 864.497 743 845.6 736.736 833 724.21 833H248.064zM458.906 593.553a5.182 5.182 0 0 0 7.185 0l104.312-100.427c3.36-3.229 1.066-8.9-3.593-8.9h-77.75V228.761a7.763 7.763 0 0 0-7.764-7.761h-37.599a7.761 7.761 0 0 0-7.76 7.761v255.465h-77.75c-4.658 0-6.946 5.671-3.592 8.9l104.311 100.427z"  /><path fill="#d81e06" d="M173.722 738.095V153.117c0-42.732 34.622-77.371 77.33-77.371h415.202c33.63 0 60.892 27.275 60.892 60.92v576.13c0 11.116-9.005 20.125-20.115 20.125H225.144c-19.168 0-37.592 2.245-51.422 15.523v-10.349z m700.883-538.04c-13.448 1.284-23.327 13.351-23.327 26.867V866.1c0 46.479-37.659 84.155-84.115 84.155H209.927c-19.996 0-36.205-16.217-36.205-36.222V823.75c0-21.583 17.492-39.083 39.065-39.083h494.244c39.676 0 71.837-32.176 71.837-71.87v-576.13C778.868 74.442 728.449 24 666.254 24H251.05C179.778 24 122 81.805 122 153.112v760.92c0 48.584 39.366 87.968 87.927 87.968h557.236C842.185 1002 903 941.157 903 866.1V225.81c0-15.126-12.972-27.224-28.395-25.754z"  /></svg>