<?xml version="1.0" standalone="no"?><!DOCTYPE svg PUBLIC "-//W3C//DTD SVG 1.1//EN" "http://www.w3.org/Graphics/SVG/1.1/DTD/svg11.dtd"><svg class="icon" width="200px" height="200.00px" viewBox="0 0 1024 1024" version="1.1" xmlns="http://www.w3.org/2000/svg"><path fill="#d81e06" d="M832 105.6H192c-38.4 0-69.333333 30.933333-69.333333 69.333333v673.066667c0 38.4 30.933333 69.333333 69.333333 69.333333h640c38.4 0 69.333333-30.933333 69.333333-69.333333V174.933333c0-38.4-30.933333-69.333333-69.333333-69.333333z m-549.333333 32h97.066666v115.2L340.266667 224h-1.066667l-1.066667-1.066667s-1.066667 0-1.066666-1.066666h-1.066667-1.066667H331.733333 328.533333h-1.066666c-1.066667 0-1.066667 0-2.133334 1.066666 0 0-1.066667 0-1.066666 1.066667-1.066667 0-1.066667 1.066667-2.133334 1.066667l-39.466666 28.8V137.6z m586.666666 711.466667c0 20.266667-17.066667 37.333333-37.333333 37.333333H192c-20.266667 0-37.333333-17.066667-37.333333-37.333333v-2.133334c0-27.733333 22.4-50.133333 50.133333-50.133333h614.4c8.533333 0 16-7.466667 16-16s-7.466667-16-16-16H204.8c-19.2 0-36.266667 6.4-50.133333 17.066667V174.933333c0-20.266667 17.066667-37.333333 37.333333-37.333333h58.666667v147.2c0 6.4 3.2 11.733333 8.533333 13.866667 2.133333 1.066667 4.266667 2.133333 7.466667 2.133333 3.2 0 6.4-1.066667 9.6-3.2l55.466666-40.533333 55.466667 40.533333c3.2 2.133333 6.4 3.2 9.6 3.2 2.133333 0 5.333333-1.066667 7.466667-2.133333 5.333333-3.2 8.533333-8.533333 8.533333-13.866667V137.6H832c20.266667 0 37.333333 17.066667 37.333333 37.333333v674.133334z"  /><path fill="#d81e06" d="M770.133333 161.066667c-8.533333 0-16 7.466667-16 16s7.466667 16 16 16c22.4 0 39.466667 18.133333 39.466667 39.466666v135.466667c0 8.533333 7.466667 16 16 16s16-7.466667 16-16V232.533333c1.066667-39.466667-30.933333-71.466667-71.466667-71.466666z"  /></svg>