<?xml version="1.0" standalone="no"?><!DOCTYPE svg PUBLIC "-//W3C//DTD SVG 1.1//EN" "http://www.w3.org/Graphics/SVG/1.1/DTD/svg11.dtd"><svg t="1583486089056" class="icon" viewBox="0 0 1024 1024" version="1.1" xmlns="http://www.w3.org/2000/svg" p-id="8080" xmlns:xlink="http://www.w3.org/1999/xlink" width="32" height="32"><defs><style type="text/css"></style></defs><path d="M855.005075 824.39287l-685.615153 0 0-43.932582c71.631434 0 119.638821-260.714883 124.668371-425.031253-0.00921-94.845135 59.170634-182.120874 143.869688-212.648145 2.991124-36.826743 33.70566-65.88864 71.582315-65.88864 38.785352 0 70.310346 31.197536 71.978335 70.176292 84.60184 30.40345 145.828296 115.879194 145.828296 208.765721 3.793396 163.910117 37.638225 424.625 127.689171 424.625L855.006098 824.39287zM232.979192 788.577153 784.450159 788.577153c-84.434018-108.470457-93.813642-389.704676-94.695732-428.259784-0.00921-82.423221-55.56655-159.481248-132.112923-180.849928l-15.271822-5.266957 2.25025-16.21224c0.255827-1.817392 0.573051-5.547343 0.573051-7.435343 0-20.204158-16.551978-37.394678-36.138058-37.394678-20.265556 0-36.138058 15.570627-36.138058 35.509748 0 1.164522 0.211824 2.13871 0.370437 3.232624l2.364861 15.758915-15.183817 5.550413c-75.311243 21.015639-132.103714 99.588159-132.103714 182.76965-0.044002 1.676176-3.66139 117.853152-23.433712 228.509391C287.857057 680.07702 263.770476 751.73813 232.979192 788.577153z" p-id="8081"></path><path d="M504.351809 947.106726c-55.79577 0-104.408955-35.767622-120.970142-89.005127l34.515095-10.728342c11.822257 38.044478 46.566572 63.59541 86.455047 63.59541 39.711444 0 74.402547-25.409716 86.340437-63.24237l34.461883 10.869558C608.451726 911.532509 559.90915 947.106726 504.351809 947.106726z" p-id="8082"></path></svg>