<?xml version="1.0" standalone="no"?><!DOCTYPE svg PUBLIC "-//W3C//DTD SVG 1.1//EN" "http://www.w3.org/Graphics/SVG/1.1/DTD/svg11.dtd"><svg t="1583303662651" class="icon" viewBox="0 0 1053 1024" version="1.1" xmlns="http://www.w3.org/2000/svg" p-id="12067" xmlns:xlink="http://www.w3.org/1999/xlink" width="65.8125" height="64"><defs><style type="text/css"></style></defs><path d="M488.2176 225.024v231.38816H13.5168V270.66368c0-29.2352 23.1168-52.61824 52.08064-52.61824h216.33536c-58.0864-12.29824-101.68832-37.43744-103.2704-83.8144C177.03424 79.52896 238.01856-8.81664 327.12192 11.3664c91.9552 20.92544 156.19584 92.8768 205.38368 154.48576 49.664-62.89408 120.01792-143.83616 216.02304-156.6208 80.2048-10.21952 146.50368 70.72768 137.97376 124.13952-7.3216 46.80704-51.6608 72.31488-108.27264 84.61824h213.59616c28.96384 0 52.08576 23.42912 52.08576 52.61824v185.69216h-474.752l-0.9984-233.83552M336.91648 59.83232c-44.3904-17.73568-70.40512 1.28-89.10336 32.48128-10.1632 17.62816-21.12 41.1136-4.89472 58.3168 42.70592 44.41088 159.82592 41.1136 238.40256 32.85504-37.02272-46.75584-82.57536-99.00032-144.40448-123.65312z m485.28384 90.48064c30.49472-39.46496-29.28128-121.69216-93.52704-91.27936-61.45536 29.184-105.79456 76.84608-143.9744 123.70944 32.91136 2.92864 66.24256 3.67616 99.26144 2.0736 40.23808-1.70496 114.70336-4.52608 138.24-34.5088z m-330.71616 861.6448H104.57088c-26.0096 0-47.18592-21.2992-47.18592-48.03584v-470.0672h434.1504v518.10304h-0.0512z m508.50816-48.09216c0 26.73152-21.12 48.03584-47.18592 48.03584h-386.85696V493.7984h434.04288v470.0672z" fill="#d4237a" p-id="12068"></path></svg>