<?xml version="1.0" standalone="no"?><!DOCTYPE svg PUBLIC "-//W3C//DTD SVG 1.1//EN" "http://www.w3.org/Graphics/SVG/1.1/DTD/svg11.dtd"><svg class="icon" width="48px" height="48.00px" viewBox="0 0 1024 1024" version="1.1" xmlns="http://www.w3.org/2000/svg"><path fill="#000000" d="M259.64544 457.44128l504.7296 0c20.35712 0 38.44096 8.2944 51.99872 21.83168 13.57824 13.57824 21.83168 31.66208 21.83168 52.0192l0 342.75328c0 19.5584-8.25344 38.42048-21.83168 51.97824l0 0c-13.55776 12.8-31.6416 21.07392-51.99872 21.07392L259.64544 947.0976c-20.33664 0-39.19872-8.27392-51.99872-21.07392-13.57824-13.55776-21.83168-31.66208-21.83168-51.97824L185.81504 531.29216c0-20.35712 8.27392-38.44096 21.83168-52.0192l0 0 0 0C221.20448 465.75616 239.3088 457.44128 259.64544 457.44128L259.64544 457.44128zM764.35456 497.39776 259.64544 497.39776c-9.80992 0-18.08384 3.72736-24.12544 9.76896l0 0c-6.02112 6.0416-9.78944 15.09376-9.78944 24.14592l0 342.75328c0 9.0112 3.76832 17.32608 9.78944 23.36768 6.0416 6.02112 15.07328 9.78944 24.12544 9.78944l504.7296 0c9.05216 0 17.36704-3.76832 24.12544-9.78944l0 0c6.06208-6.0416 9.80992-14.336 9.80992-23.36768L798.3104 531.29216c0-9.03168-3.76832-18.10432-9.80992-24.14592C781.7216 501.12512 773.4272 497.39776 764.35456 497.39776L764.35456 497.39776zM753.07008 351.21152c0 10.5472-9.05216 19.59936-20.35712 19.59936-11.28448 0-19.53792-9.05216-19.53792-19.59936 0-55.74656-22.60992-106.20928-58.75712-142.37696-36.94592-36.1472-86.67136-58.75712-142.39744-58.75712-55.76704 0-106.22976 22.60992-142.39744 58.75712-36.16768 36.16768-58.75712 86.6304-58.75712 142.37696l0 118.272c0 10.5472-9.05216 19.59936-19.59936 19.59936-11.28448 0-20.33664-9.03168-20.33664-19.59936l0-118.272c0-66.29376 27.11552-126.5664 70.79936-170.25024 43.7248-43.68384 103.97696-70.81984 170.2912-70.81984 66.29376 0 126.5664 27.11552 170.27072 70.81984C725.95456 224.6656 753.07008 284.93824 753.07008 351.21152L753.07008 351.21152z" /></svg>