<?xml version="1.0" standalone="no"?><!DOCTYPE svg PUBLIC "-//W3C//DTD SVG 1.1//EN" "http://www.w3.org/Graphics/SVG/1.1/DTD/svg11.dtd"><svg t="1583485976941" class="icon" viewBox="0 0 1024 1024" version="1.1" xmlns="http://www.w3.org/2000/svg" p-id="5118" xmlns:xlink="http://www.w3.org/1999/xlink" width="32" height="32"><defs><style type="text/css"></style></defs><path d="M903.58784 519.68c1.37216-69.3248 42.0352-126.07488 105.16992-153.2928 7.99232-3.44576 12.68224-13.94176 12.68224-22.10304 0-51.75808 14.03392-136.91904-61.78816-136.91904H108.1088c-21.84192 0-42.66496-2.10944-62.65344 8.74496-40.17664 21.80608-26.22464 96.1024-26.22464 133.26848 0 8.6272 4.78208 18.05824 12.68224 22.10304 122.19392 62.59712 122.19392 233.81504 0 296.41216-7.89504 4.0448-12.68224 13.47584-12.68224 22.10304 0 50.70336-15.77472 142.00832 60.13952 142.00832h848.9216c18.09408 0 38.08768 2.10432 55.59808-3.328 51.98848-16.13824 37.5552-92.57984 37.5552-133.59104 0-8.16128-4.68992-18.6624-12.68224-22.10304-63.13984-27.22816-103.80288-83.97824-105.17504-153.30304-0.65536-32.9728-51.85536-33.03424-51.2 0 1.69984 85.79072 51.16416 163.28704 130.52928 197.504l-12.68224-22.10304v40.29952c0 9.45152 5.12512 35.8912-1.50016 43.91936-3.61984 4.38272-20.4288 1.50016-24.80128 1.50016h-868.352c-10.5472 0-5.16096-79.80544-5.16096-90.80832l-12.68224 22.10304c73.0368-37.41696 117.48352-110.6944 119.1168-192.41472 1.6128-80.90624-48.24064-156.1088-119.1168-192.41472l12.68224 22.10304V264.04864c0-8.43776 18.17088-5.48864 23.0144-5.48864H964.7616c11.13088 0 5.46816 74.8544 5.46816 85.71904l12.68224-22.10304c-79.36512 34.22208-128.82944 111.71328-130.52928 197.504-0.65024 33.03424 50.54976 32.9728 51.20512 0z" p-id="5119"></path><path d="M339.86048 306.73408v80.19968c0 33.01888 51.2 33.01888 51.2 0V306.73408c0-33.01888-51.2-33.01888-51.2 0zM339.86048 483.52256v80.1792c0 33.01888 51.2 33.01888 51.2 0v-80.1792c0-33.01888-51.2-33.01888-51.2 0zM339.86048 660.28544v80.19968c0 33.01888 51.2 33.01888 51.2 0v-80.19968c0-33.01376-51.2-33.01376-51.2 0z" p-id="5120"></path></svg>