<?xml version="1.0" standalone="no"?><!DOCTYPE svg PUBLIC "-//W3C//DTD SVG 1.1//EN" "http://www.w3.org/Graphics/SVG/1.1/DTD/svg11.dtd"><svg class="icon" width="200px" height="200.00px" viewBox="0 0 1024 1024" version="1.1" xmlns="http://www.w3.org/2000/svg"><path fill="#000000" d="M802.667928 1024h-581.432762A124.523517 124.523517 0 0 1 96.90546 899.573389v-775.243683A124.523517 124.523517 0 0 1 221.235166 0h581.432762a124.523517 124.523517 0 0 1 124.426612 124.329706v775.243683a124.523517 124.523517 0 0 1-124.426612 124.426611z m-581.432762-969.054604a69.481215 69.481215 0 0 0-69.38431 69.38431v775.243683a69.481215 69.481215 0 0 0 69.38431 69.481215h581.432762A69.481215 69.481215 0 0 0 872.149144 899.573389v-775.243683a69.481215 69.481215 0 0 0-69.481216-69.38431zM511.951547 617.190877a163.188795 163.188795 0 1 1 163.188796-163.188795 163.382606 163.382606 0 0 1-163.188796 163.188795z m0-271.335289A108.243399 108.243399 0 1 0 620.194947 454.002082a108.243399 108.243399 0 0 0-108.2434-108.146494zM376.380808 468.828617a30.719031 30.719031 0 0 1-5.135989-0.484527 749.27302 749.27302 0 0 1-261.644743-103.204315 27.521151 27.521151 0 0 1 29.071638-46.514621 692.777136 692.777136 0 0 0 242.263651 95.742595 27.424245 27.424245 0 0 1-5.039084 54.460868zM647.619192 468.828617a27.424245 27.424245 0 0 1-5.039084-54.460868 693.455475 693.455475 0 0 0 242.263651-95.742595 27.521151 27.521151 0 0 1 29.071638 46.514621 749.27302 749.27302 0 0 1-261.644743 103.204315 30.719031 30.719031 0 0 1-4.651462 0.484527z" /></svg>