<?xml version="1.0" standalone="no"?><!DOCTYPE svg PUBLIC "-//W3C//DTD SVG 1.1//EN" "http://www.w3.org/Graphics/SVG/1.1/DTD/svg11.dtd"><svg class="icon" width="200px" height="200.00px" viewBox="0 0 1024 1024" version="1.1" xmlns="http://www.w3.org/2000/svg"><path fill="#000000" d="M809.27 249.21h-18.54V118.84c0-11.42-9.27-20.69-20.69-20.69H253.97c-11.42 0-20.69 9.27-20.69 20.69v339.77c0 7.99 0.33 15.93 1.03 23.75 11.5 135.78 120.8 244.13 257.04 254.14v147.95h-164.8c-11.42 0-20.69 9.27-20.69 20.69s9.27 20.69 20.69 20.69h370.93c11.42 0 20.69-9.27 20.69-20.69s-9.27-20.69-20.69-20.69H532.73V736.51c136.2-10.02 245.45-118.36 256.96-254.14h19.58c31.04 0 60.3-12.13 82.36-34.18 22.02-22.06 34.18-51.32 34.18-82.36 0-64.31-52.27-116.62-116.54-116.62z m-297.23 446.7c-129.7 0-235.4-104.46-237.34-233.66-0.04-0.5-0.04-0.99 0-1.49-0.04-0.7-0.04-1.45-0.04-2.15V139.54h474.68v319.08c0 0.7 0 1.45-0.04 2.15 0.04 0.5 0.04 0.99 0 1.49-1.94 129.2-107.6 233.65-237.26 233.65z m350.32-276.98c-14.24 14.24-33.11 22.06-53.1 22.06h-18.54v-150.4h18.54c41.43 0 75.15 33.77 75.15 75.24 0.01 19.99-7.81 38.86-22.05 53.1zM749.3 460.77c0.04 0.5 0.04 0.99 0 1.49-0.04-0.21-0.04-0.37-0.04-0.58 0-0.29 0-0.62 0.04-0.91zM234.31 482.37h-19.58c-64.27 0-116.54-52.27-116.54-116.54 0-31.04 12.13-60.3 34.18-82.36 21.98-22.06 51.23-34.27 82.36-34.27h18.54v41.38h-18.54c-20.03 0-38.86 7.86-53.06 22.14-14.28 14.24-22.1 33.11-22.1 53.1 0 41.43 33.73 75.15 75.15 75.15h18.54v17.63c0.01 8 0.34 15.95 1.05 23.77zM274.74 461.68c0 0.21 0 0.37-0.04 0.58-0.04-0.5-0.04-0.99 0-1.49 0.04 0.29 0.04 0.62 0.04 0.91z" /></svg>