<?xml version="1.0" standalone="no"?><!DOCTYPE svg PUBLIC "-//W3C//DTD SVG 1.1//EN" "http://www.w3.org/Graphics/SVG/1.1/DTD/svg11.dtd"><svg t="1583400254231" class="icon" viewBox="0 0 1024 1024" version="1.1" xmlns="http://www.w3.org/2000/svg" p-id="14741" xmlns:xlink="http://www.w3.org/1999/xlink" width="32" height="32"><defs><style type="text/css"></style></defs><path d="M849.5 174.5h-675c-15.557 0-28.125 12.568-28.125 28.125s12.568 28.125 28.125 28.125h675c15.557 0 28.125-12.568 28.125-28.125S865.057 174.5 849.5 174.5z m0 309.375h-675c-15.557 0-28.125 12.568-28.125 28.125s12.568 28.125 28.125 28.125h675c15.557 0 28.125-12.568 28.125-28.125s-12.568-28.125-28.125-28.125z m0 309.375h-675c-15.557 0-28.125 12.568-28.125 28.125S158.943 849.5 174.5 849.5h675c15.557 0 28.125-12.568 28.125-28.125S865.057 793.25 849.5 793.25z" p-id="14742" fill="#2c2c2c"></path></svg>