<?xml version="1.0" standalone="no"?><!DOCTYPE svg PUBLIC "-//W3C//DTD SVG 1.1//EN" "http://www.w3.org/Graphics/SVG/1.1/DTD/svg11.dtd"><svg t="1583400185639" class="icon" viewBox="0 0 1171 1024" version="1.1" xmlns="http://www.w3.org/2000/svg" p-id="9667" width="36.59375" height="32" xmlns:xlink="http://www.w3.org/1999/xlink"><defs><style type="text/css"></style></defs><path d="M658.285714 512q0-59.465143-23.113143-113.444571t-62.537143-93.403429-93.403429-62.537143-113.444571-23.113143-113.444571 23.113143-93.403429 62.537143-62.537143 93.403429-23.113143 113.444571 23.113143 113.444571 62.537143 93.403429 93.403429 62.537143 113.444571 23.113143 113.444571-23.113143 93.403429-62.537143 62.537143-93.403429 23.113143-113.444571zM1097.142857 512q0-59.465143-23.113143-113.444571t-62.537143-93.403429-93.403429-62.537143-113.444571-23.113143l-220.598857 0q68.022857 51.419429 107.739429 128t39.716571 164.571429-39.716571 164.571429-107.739429 128l220.598857 0q59.465143 0 113.444571-23.113143t93.403429-62.537143 62.537143-93.403429 23.113143-113.444571zM1170.285714 512q0 74.313143-29.110857 141.970286t-77.970286 116.589714-116.589714 77.970286-141.970286 29.110857l-438.857143 0q-74.313143 0-141.970286-29.110857t-116.589714-77.970286-77.970286-116.589714-29.110857-141.970286 29.110857-141.970286 77.970286-116.589714 116.589714-77.970286 141.970286-29.110857l438.857143 0q74.313143 0 141.970286 29.110857t116.589714 77.970286 77.970286 116.589714 29.110857 141.970286z" p-id="9668" fill="#2c2c2c"></path></svg>